<svg xmlns="http://www.w3.org/2000/svg" height="800" width="1200" viewBox="-12.086385 -17.728375 104.74867 106.37025"><defs><linearGradient spreadMethod="pad" gradientTransform="matrix(0 2.58964 2.58964 0 73.8016 546.3438)" gradientUnits="userSpaceOnUse" id="z" y2="0" x2="1" y1="0" x1="0"><stop offset="0" stop-color="#12406e"/><stop offset="1" stop-color="#0d2e52"/></linearGradient><linearGradient spreadMethod="pad" gradientTransform="matrix(0 2.58964 2.58964 0 51.4592 546.3438)" gradientUnits="userSpaceOnUse" id="y" y2="0" x2="1" y1="0" x1="0"><stop offset="0" stop-color="#12406e"/><stop offset="1" stop-color="#0d2e52"/></linearGradient><linearGradient spreadMethod="pad" gradientTransform="matrix(0 2.58964 2.58964 0 42.004 546.3438)" gradientUnits="userSpaceOnUse" id="x" y2="0" x2="1" y1="0" x1="0"><stop offset="0" stop-color="#12406e"/><stop offset="1" stop-color="#0d2e52"/></linearGradient><linearGradient spreadMethod="pad" gradientTransform="matrix(0 2.58963 2.58963 0 60.5621 546.3438)" gradientUnits="userSpaceOnUse" id="w" y2="0" x2="1" y1="0" x1="0"><stop offset="0" stop-color="#12406e"/><stop offset="1" stop-color="#0d2e52"/></linearGradient><linearGradient spreadMethod="pad" gradientTransform="matrix(0 2.58966 2.58966 0 66.7226 546.3438)" gradientUnits="userSpaceOnUse" id="v" y2="0" x2="1" y1="0" x1="0"><stop offset="0" stop-color="#12406e"/><stop offset="1" stop-color="#0d2e52"/></linearGradient><linearGradient spreadMethod="pad" gradientTransform="rotate(104.404 -170.175 294.3243) scale(12.22917)" gradientUnits="userSpaceOnUse" id="o" y2="0" x2="1" y1="0" x1="0"><stop offset="0" stop-color="#4a4a49"/><stop offset=".4435" stop-color="#a4a3a3"/><stop offset=".4435" stop-color="#a4a3a3"/><stop offset=".8301" stop-color="#e9e9e9"/><stop offset="1" stop-color="#e9e9e9"/></linearGradient><linearGradient spreadMethod="pad" gradientTransform="matrix(0 -16.22857 -16.22857 0 58.3223 532.363)" gradientUnits="userSpaceOnUse" id="n" y2="0" x2="1" y1="0" x1="0"><stop offset="0" stop-color="#4a4a49"/><stop offset=".4977" stop-color="#cacaca"/><stop offset="1" stop-color="#fff"/></linearGradient><linearGradient spreadMethod="pad" gradientTransform="rotate(-126.49 175.154 248.4968) scale(24.1472)" gradientUnits="userSpaceOnUse" id="m" y2="0" x2="1" y1="0" x1="0"><stop offset="0"/><stop offset=".4525" stop-color="#4a4a49"/><stop offset=".8027" stop-color="#8c8c8b"/><stop offset="1" stop-color="#f0f0f0"/></linearGradient><linearGradient spreadMethod="pad" gradientTransform="scale(24.1472 -24.1472) rotate(53.51 22.8276 -9.597)" gradientUnits="userSpaceOnUse" id="l" y2="0" x2="1" y1="0" x1="0"><stop offset="0"/><stop offset=".4525" stop-color="#4a4a49"/><stop offset=".8027" stop-color="#8c8c8b"/><stop offset="1" stop-color="#f0f0f0"/></linearGradient><linearGradient spreadMethod="pad" gradientTransform="matrix(0 -17.90533 -17.90533 0 58.3223 549.4244)" gradientUnits="userSpaceOnUse" id="k" y2="0" x2="1" y1="0" x1="0"><stop offset="0" stop-color="#e3e3e3"/><stop offset=".3129" stop-color="#f4f4f4"/><stop offset=".3129" stop-color="#f4f4f4"/><stop offset=".9851" stop-color="#646363"/><stop offset="1" stop-color="#646363"/></linearGradient><linearGradient spreadMethod="pad" gradientTransform="matrix(0 -59.06005 -59.06005 0 58.3223 561.3329)" gradientUnits="userSpaceOnUse" id="j" y2="0" x2="1" y1="0" x1="0"><stop offset="0" stop-color="#c6c6c6"/><stop offset=".1106" stop-color="#ededed"/><stop offset=".3344" stop-color="#f0f0f0"/><stop offset=".6671" stop-color="#575756"/><stop offset=".8493" stop-color="#3a3938"/><stop offset=".9802" stop-color="#929292"/><stop offset="1" stop-color="#929292"/></linearGradient><linearGradient spreadMethod="pad" gradientTransform="matrix(0 -59.0597 -59.0597 0 58.3223 561.333)" gradientUnits="userSpaceOnUse" id="i" y2="0" x2="1" y1="0" x1="0"><stop offset="0" stop-color="#c6c6c6"/><stop offset=".1106" stop-color="#ededed"/><stop offset=".3344" stop-color="#f0f0f0"/><stop offset=".6671" stop-color="#575756"/><stop offset=".8348" stop-color="#3a3938"/><stop offset=".9649" stop-color="#929292"/><stop offset="1" stop-color="#929292"/></linearGradient><linearGradient spreadMethod="pad" gradientTransform="matrix(0 -59.2506 -59.2506 0 58.3223 563.501)" gradientUnits="userSpaceOnUse" id="g" y2="0" x2="1" y1="0" x1="0"><stop offset="0" stop-color="#e3e3e3"/><stop offset=".1106" stop-color="#fafafa"/><stop offset=".3458" stop-color="#fff"/><stop offset=".695" stop-color="#dadada"/><stop offset=".8493" stop-color="#d5d5d5"/><stop offset="1" stop-color="#e3e3e3"/></linearGradient><linearGradient spreadMethod="pad" gradientTransform="matrix(-73.3014 0 0 73.3014 94.5263 561.1457)" gradientUnits="userSpaceOnUse" id="e" y2="0" x2="1" y1="0" x1="0"><stop offset="0" stop-color="#f0f0f0"/><stop offset=".4973" stop-color="#929292"/><stop offset="1" stop-color="#f0f0f0"/></linearGradient><linearGradient spreadMethod="pad" gradientTransform="matrix(0 -76.73631 -76.73631 0 58.3223 588.0513)" gradientUnits="userSpaceOnUse" id="d" y2="0" x2="1" y1="0" x1="0"><stop offset="0" stop-color="#131313"/><stop offset=".5052" stop-color="#fff"/><stop offset=".5052" stop-color="#fff"/><stop offset=".7387" stop-color="#434342"/><stop offset="1" stop-color="#434342"/></linearGradient><linearGradient spreadMethod="pad" gradientTransform="matrix(3.0421 11.84475 11.84475 -3.0421 44.0794 532.3654)" gradientUnits="userSpaceOnUse" id="b" y2="0" x2="1" y1="0" x1="0"><stop offset="0" stop-color="#4a4a49"/><stop offset=".4772" stop-color="#a4a3a3"/><stop offset=".4772" stop-color="#a4a3a3"/><stop offset=".8301" stop-color="#e9e9e9"/><stop offset="1" stop-color="#e9e9e9"/></linearGradient><clipPath id="u"><path d="M25.99 505.521h64.665v56.731H25.99z"/></clipPath><clipPath id="s"><path d="M25.99 505.521h64.665v56.731H25.99z"/></clipPath><clipPath id="p"><path d="M25.99 505.521h64.665v56.731H25.99z"/></clipPath><clipPath id="h"><path d="M25.99 505.521h64.665v56.731H25.99z"/></clipPath><clipPath id="f"><path d="M25.99 505.521h64.665v56.731H25.99z"/></clipPath><clipPath id="c"><path d="M25.99 505.521h64.665v56.731H25.99z"/></clipPath><clipPath id="a"><path d="M25.99 505.521h64.665v56.731H25.99z"/></clipPath><radialGradient spreadMethod="pad" gradientTransform="matrix(0 -5.52289 -5.52289 0 52.9366 554.7306)" gradientUnits="userSpaceOnUse" id="t" fy="0" fx="0" r="1" cy="0" cx="0"><stop offset="0" stop-color="#7a8ea8"/><stop offset="1" stop-color="#12406e"/></radialGradient><radialGradient spreadMethod="pad" gradientTransform="matrix(0 -5.74326 -5.74326 0 60.6966 554.9403)" gradientUnits="userSpaceOnUse" id="r" fy="0" fx="0" r="1" cy="0" cx="0"><stop offset="0" stop-color="#7a8ea8"/><stop offset="1" stop-color="#12406e"/></radialGradient><radialGradient spreadMethod="pad" gradientTransform="matrix(0 -4.75848 -4.75848 0 64.8213 554.2412)" gradientUnits="userSpaceOnUse" id="q" fy="0" fx="0" r="1" cy="0" cx="0"><stop offset="0" stop-color="#7a8ea8"/><stop offset="1" stop-color="#12406e"/></radialGradient></defs><path fill="gray" stroke="#000" stroke-width=".2" stroke-miterlimit="5" stroke-opacity=".2451" d="M11.9205 20.5963H70.25v17.1441H11.9205z"/><g clip-path="url(#a)" transform="matrix(1.25 0 0 -1.25 -32.6149 702.8148)"><path d="M51.1973 512.7117c-5.274 1.933-7.163 6.306-9.127 10.742-2.301 5.195-6.734 18.93-8.016 22.864a.717.717 0 01-.014.043c.016-.05.033-.101.049-.154.714-2.345 1.271-4.476 1.867-6.367 2.581-8.181 4.984-14.298 4.984-14.298s2.412-6.435 4.654-9.044c2.172-2.529 4.701-3.809 7.393-4.339.111-.022.226-.045.35-.067.116-.02.237-.04.365-.059.013-.002.026-.005.039-.007a.0292.0292 0 01-.009.002c-.912.169-1.743.395-2.505.672l-.03.012" fill="#fff"/></g><path d="M33.701 547.432v-.001l.02-.063.014-.037v-.002l.056-.165c.038-.098.079-.203.121-.311.365-.933.898-2.174 1.64-3.605.025-.049.053-.101.079-.151.273-.521.571-1.065.901-1.628 1.399-2.395 3.327-5.122 5.926-7.755.158-.161.321-.319.484-.477.075-.074.148-.15.226-.224.06-.057.119-.116.18-.174.222-.217.404-.385.534-.496.001-.001.001-.002.002-.002l.001-.001.588-.027c.418-.018.991-.043 1.563-.068.715-.031 1.426-.061 1.819-.076 1.475-.059 2.954-.103 4.431-.139l1.206-.045 1.948-.013c.932-.013 1.841-.02 2.714-.02h.067c-.036 0-.08.002-.131.003-.141.004-.335.012-.578.026-1.014.058-2.861.231-5.13.748-.812.184-1.678.414-2.577.696-4.69 1.475-10.343 4.404-14.149 10.323-.155.241-.309.498-.461.761-.751 1.305-1.414 2.746-1.486 2.907l-.005.01a.0223.0223 0 01-.003.005z" fill="url(#b)" transform="matrix(1.25 0 0 -1.25 -32.6149 702.8148)"/><g clip-path="url(#c)" transform="matrix(1.25 0 0 -1.25 -32.6149 702.8148)"><path d="M69.1515 524.8881c-.827-1.928-1.751-3.914-3.153-5.184-.979-.883-2.353-1.718-5.744-1.844-.635-.025-3.23-.025-3.864 0-3.392.126-4.765.961-5.744 1.844-1.402 1.27-2.326 3.256-3.153 5.184-.332.768-2.046 4.978-2.778 6.906 5.147-.232 9.899-.355 13.607-.353 3.708-.002 8.459.121 13.606.353-.732-1.928-2.445-6.138-2.777-6.906m3.019 7.425c-.417-.018-.991-.043-1.562-.068-.715-.031-1.426-.061-1.818-.076-1.476-.059-2.955-.104-4.432-.139l-1.206-.044-1.948-.014c-.933-.013-1.841-.02-2.715-.02h-.335c-.873 0-1.782.007-2.715.02l-1.948.014-1.205.044c-1.477.035-2.956.08-4.432.139-.393.015-1.103.045-1.819.076-.571.025-1.144.05-1.562.068-.289.013-.503.023-.589.027.029-.082 2.318-5.825 2.824-7.026.506-1.191.999-2.388 1.623-3.519.581-1.052 1.273-2.056 2.197-2.827.216-.18.443-.342.678-.489.778-.486 1.647-.806 2.553-.997 1.256-.261 2.544-.308 3.821-.317l.742.001.741-.001c1.278.009 2.565.056 3.822.317.906.191 1.774.511 2.553.997.234.147.461.309.678.489.924.771 1.615 1.775 2.197 2.827.624 1.131 1.117 2.328 1.623 3.519.506 1.201 2.794 6.944 2.823 7.026-.085-.004-.3-.014-.589-.027"/></g><path d="M58.323 560.9h-.003c-4.052-.006-13.108-.055-20.33-.098-3.105-.018-5.873-.035-7.756-.047a98.215 98.215 0 01-.845-.067c.006-.024.039-.141.099-.339.409-1.383 2.043-6.71 3.842-11.947l.005-.01c.123-.328.247-.654.374-.979-.003.007-.005.014-.007.019-.272.775-.415 1.266-.415 1.266-.114.413.203.802.622.714 2.07-.433 8.369-1.29 24.414-1.27 16.043-.02 22.342.837 24.412 1.27.421.088.736-.301.622-.714 0 0-.142-.491-.415-1.266-.002-.005-.004-.012-.006-.019.127.325.252.651.373.979l.006.01c1.799 5.237 3.432 10.564 3.843 11.947.057.198.092.315.097.339-.253.021-.536.044-.844.067-1.884.012-4.651.029-7.756.047-7.223.043-16.279.092-20.33.098z" fill="url(#d)" transform="matrix(1.25 0 0 -1.25 -32.6149 702.8148)"/><path d="M58.641 561.599h-.638c-.18.003-.363.004-.547.004-.694 0-1.379-.016-1.807-.018-5.217-.032-10.527-.128-15.738-.322-3.51-.119-6.679-.298-8.878-.451-.296-.019-.573-.038-.83-.057-.299-.023-.571-.045-.814-.067.253.021.536.044.845.067 1.883.012 4.651.029 7.756.047 7.222.043 16.278.092 20.33.098.001 0 13.112-.055 20.335-.098 3.105-.018 5.872-.035 7.756-.047.308-.023.591-.046.844-.067-.241.022-.515.044-.814.067-.256.019-.533.038-.829.057-2.199.153-5.369.332-8.879.451-5.212.194-10.521.29-15.737.322-.428.002-1.11.018-1.803.018-.185 0-.371-.001-.552-.004" fill="url(#e)" transform="matrix(1.25 0 0 -1.25 -32.6149 702.8148)"/><g clip-path="url(#f)" transform="matrix(1.25 0 0 -1.25 -32.6149 702.8148)"><path d="M90.0222 558.9188c0-.037-.173-1.014-.233-1.331-.421-2.307-.881-4.609-1.383-6.9-.502-2.276-1.042-4.54-1.614-6.799-.351-1.368-.718-2.736-1.095-4.099-.275-1.003-1.127-3.97-1.639-5.666-.572-1.889-1.165-3.766-1.779-5.644-.674-2.044-2.764-8.016-3.141-8.965-1.724-4.335-3.548-7.698-6.729-10.205-3.068-2.42-6.328-3.447-14.087-3.443-7.759-.004-11.018 1.023-14.087 3.443-3.181 2.507-5.005 5.87-6.728 10.205-.377.949-2.468 6.921-3.142 8.965-.614 1.878-1.207 3.755-1.778 5.644-.513 1.696-1.365 4.663-1.64 5.666-.377 1.363-.744 2.731-1.095 4.099-.572 2.259-1.112 4.523-1.614 6.799-.502 2.291-.961 4.593-1.383 6.9-.06.317-.233 1.294-.233 1.331-.013.108-.009.215.002.322.008.072.019.143.038.213.122.466.471.869.983 1.007.102.027.317.059.483.081.381.054.8.103 1.262.147.241.021.514.043.813.066.257.019.533.038.829.057 2.2.153 5.369.332 8.879.45 5.212.195 10.522.292 15.738.322.541.004 1.492.028 2.354.015h.638c.862.013 1.814-.011 2.355-.015 5.216-.03 10.526-.127 15.737-.322 3.51-.118 6.68-.297 8.879-.45.296-.019.573-.038.829-.057.3-.023.572-.045.814-.066.461-.044.88-.093 1.261-.147.166-.022.381-.054.483-.081.512-.138.861-.541.984-1.007a1.53 1.53 0 00.037-.213c.011-.107.015-.214.002-.322m-.888 2.217c-.148.039-.409.076-.551.094-.386.055-.818.106-1.279.149h-.003c-4.352.392-17.958.858-28.975.873h-.008c-11.017-.015-24.622-.481-28.975-.873h-.002a26.837 26.837 0 01-1.28-.149c-.142-.018-.403-.055-.551-.094-.917-.246-1.52-1.152-1.404-2.107h.002c.036-.288.234-1.352.236-1.361.431-2.36.898-4.688 1.387-6.919.486-2.201 1.03-4.494 1.618-6.816.333-1.301.702-2.683 1.097-4.107.281-1.027 1.129-3.979 1.643-5.679.555-1.835 1.155-3.737 1.783-5.657.689-2.09 2.78-8.058 3.152-8.994 1.734-4.362 3.57-7.804 6.889-10.421 2.922-2.304 6.085-3.555 14.376-3.555h.066c8.291 0 11.454 1.251 14.376 3.555 3.32 2.617 5.155 6.059 6.89 10.421.371.936 2.463 6.904 3.152 8.994.627 1.92 1.227 3.822 1.782 5.657.514 1.7 1.362 4.652 1.643 5.679.395 1.424.764 2.806 1.097 4.107.588 2.322 1.133 4.615 1.619 6.816.489 2.231.955 4.559 1.387 6.919.001.009.199 1.073.235 1.361h.002c.117.955-.487 1.861-1.404 2.107"/></g><path d="M89.791 558.376c-.422-2.307-.882-4.609-1.384-6.9-.502-2.275-1.041-4.54-1.614-6.799-.351-1.368-.717-2.737-1.095-4.099-.274-1.004-1.127-3.97-1.639-5.666-.571-1.889-1.164-3.766-1.779-5.644-.673-2.044-2.764-8.015-3.141-8.965-1.724-4.335-3.548-7.697-6.729-10.205-.587-.464-1.182-.876-1.815-1.24-2.667-1.535-6-2.206-12.272-2.203-6.273-.003-9.606.668-12.274 2.203-.631.364-1.227.776-1.815 1.24-3.181 2.508-5.005 5.87-6.728 10.205-.377.95-2.468 6.921-3.141 8.965-.615 1.878-1.208 3.755-1.78 5.644-.512 1.696-1.364 4.662-1.638 5.666-.379 1.362-.745 2.731-1.096 4.099-.571 2.259-1.111 4.524-1.613 6.799a197.615 197.615 0 00-1.384 6.9c-.041.22-.137.757-.192 1.077-.018-.069-.03-.14-.037-.213.046-.279.165-.954.213-1.207.422-2.307.881-4.61 1.383-6.9.502-2.275 1.043-4.54 1.615-6.799.351-1.368.717-2.737 1.095-4.099.275-1.004 1.127-3.971 1.639-5.666.572-1.889 1.165-3.766 1.778-5.644.675-2.044 2.765-8.016 3.142-8.965 1.724-4.335 3.547-7.697 6.729-10.205 3.071-2.421 6.332-3.448 14.103-3.443h.001c7.77-.005 11.032 1.022 14.103 3.443 3.181 2.508 5.006 5.87 6.728 10.205.377.949 2.468 6.921 3.142 8.965.614 1.878 1.207 3.755 1.778 5.644.513 1.695 1.365 4.662 1.64 5.666.377 1.362.744 2.731 1.095 4.099.572 2.259 1.112 4.524 1.614 6.799.502 2.29.961 4.593 1.383 6.9.048.253.168.928.215 1.207-.008.073-.02.144-.038.213-.055-.32-.151-.857-.192-1.077" fill="url(#g)" transform="matrix(1.25 0 0 -1.25 -32.6149 702.8148)"/><g clip-path="url(#h)" transform="matrix(1.25 0 0 -1.25 -32.6149 702.8148)"><path d="M65.4472 512.7117c5.274 1.933 7.163 6.306 9.128 10.742 2.3 5.195 6.733 18.93 8.015 22.864a.717.717 0 00.014.043c-.016-.05-.033-.101-.049-.154-.714-2.345-1.271-4.476-1.867-6.367-2.581-8.181-4.983-14.298-4.983-14.298s-2.413-6.435-4.655-9.044c-2.172-2.529-4.701-3.809-7.393-4.339-.111-.022-.226-.045-.35-.067-.116-.02-.237-.04-.365-.059-.013-.002-.026-.005-.039-.007.003.001.006.002.009.002.912.169 1.744.395 2.505.672l.03.012" fill="#fff"/></g><path d="M87.158 560.349c-.411-1.383-2.044-6.71-3.843-11.947l-.006-.01a61.292 61.292 0 00-.366-.96v-.001l-.02-.063-.013-.037c0-.002-.001-.005-.002-.007-.021-.067-.052-.172-.079-.258-.075-.237-.151-.474-.225-.705-.016-.05-.033-.102-.049-.155-.714-2.345-1.271-4.474-1.867-6.366-2.581-8.181-4.983-14.298-4.983-14.298s-2.413-6.435-4.654-9.045c-2.173-2.528-4.702-3.808-7.394-4.338a9.955 9.955 0 00-.349-.067c-.116-.02-.238-.04-.366-.06-.013-.001-.026-.004-.038-.006.002.001.005.001.009.002-1.045-.157-2.502-.275-4.59-.277-2.089.002-3.546.12-4.591.277.003-.001.006-.001.01-.002-.014.002-.026.005-.04.006-.127.02-.249.04-.364.06-.125.021-.24.044-.351.067-2.691.53-5.22 1.81-7.393 4.338-2.241 2.61-4.654 9.045-4.654 9.045s-2.403 6.117-4.983 14.298c-.597 1.892-1.153 4.021-1.867 6.366-.017.053-.033.105-.049.155-.076.231-.151.468-.225.705-.027.086-.059.191-.08.258 0 .002-.001.005-.001.007l-.014.037-.02.063v.001-.001.001c-.124.319-.246.638-.366.96l-.005.01c-1.799 5.237-3.433 10.564-3.842 11.947-.06.198-.093.315-.099.339-.461-.043-.88-.092-1.26-.146-.167-.022-.381-.054-.484-.081-.512-.138-.861-.541-.983-1.008.055-.32.151-.857.192-1.077.421-2.307.881-4.609 1.384-6.9.502-2.275 1.042-4.54 1.613-6.799.351-1.368.717-2.737 1.096-4.099.274-1.004 1.126-3.97 1.638-5.666.572-1.889 1.165-3.766 1.78-5.644.673-2.044 2.764-8.015 3.141-8.965 1.723-4.335 3.547-7.697 6.728-10.205.588-.464 1.184-.876 1.815-1.24 2.668-1.535 6.001-2.206 12.273-2.203h.001c6.272-.003 9.605.668 12.272 2.203.633.364 1.228.776 1.815 1.24 3.181 2.508 5.005 5.87 6.729 10.205.377.95 2.468 6.921 3.141 8.965.615 1.878 1.208 3.755 1.779 5.644.512 1.696 1.365 4.662 1.639 5.666.378 1.362.744 2.731 1.095 4.099.573 2.259 1.112 4.524 1.614 6.799.502 2.291.962 4.593 1.384 6.9.041.22.137.757.192 1.077-.122.467-.472.87-.984 1.008-.101.027-.317.059-.483.081-.381.054-.799.103-1.261.146-.005-.024-.04-.141-.097-.339" fill="url(#i)" transform="matrix(1.25 0 0 -1.25 -32.6149 702.8148)"/><path d="M89.806 558.033c-.422-2.307-.881-4.61-1.383-6.9-.502-2.275-1.042-4.54-1.614-6.799-.351-1.368-.718-2.737-1.095-4.099-.275-1.004-1.127-3.971-1.64-5.666-.571-1.889-1.164-3.766-1.778-5.644-.674-2.044-2.765-8.016-3.142-8.965-1.722-4.335-3.547-7.697-6.728-10.205-3.071-2.421-6.333-3.448-14.103-3.443-7.772-.005-11.033 1.022-14.104 3.443-3.182 2.508-5.005 5.87-6.729 10.205-.377.949-2.467 6.921-3.142 8.965-.613 1.878-1.206 3.755-1.778 5.644-.512 1.695-1.364 4.662-1.639 5.666-.378 1.362-.744 2.731-1.095 4.099-.572 2.259-1.113 4.524-1.615 6.799-.502 2.29-.961 4.593-1.383 6.9-.048.253-.167.928-.213 1.207-.012-.106-.016-.213-.003-.321 0-.038.174-1.014.233-1.331.421-2.308.881-4.609 1.383-6.901.503-2.275 1.043-4.539 1.614-6.798.351-1.368.718-2.736 1.095-4.1.276-1.003 1.127-3.97 1.639-5.665.573-1.889 1.165-3.767 1.78-5.645.673-2.044 2.764-8.014 3.141-8.965 1.723-4.333 3.547-7.697 6.728-10.205 3.069-2.419 6.329-3.446 14.087-3.442h.001c7.758-.004 11.017 1.023 14.087 3.442 3.18 2.508 5.004 5.872 6.728 10.205.377.951 2.468 6.921 3.141 8.965a257.939 257.939 0 011.779 5.645c.512 1.695 1.364 4.662 1.639 5.665.377 1.364.744 2.732 1.095 4.1.572 2.259 1.112 4.523 1.614 6.798.502 2.292.962 4.593 1.383 6.901.06.317.233 1.293.233 1.331.013.108.01.215-.001.321-.047-.279-.167-.954-.215-1.207" fill="url(#j)" transform="matrix(1.25 0 0 -1.25 -32.6149 702.8148)"/><path d="M82.735 549.412c-2.07-.433-8.369-1.29-24.412-1.27h-.001c-16.044-.02-22.343.837-24.413 1.27-.419.088-.736-.301-.622-.714 0 0 .143-.491.415-1.266.002-.005.004-.011.007-.016.072-.161.735-1.602 1.486-2.907.152-.263.306-.52.461-.761 3.806-5.919 9.459-8.848 14.149-10.323a33.004 33.004 0 012.577-.696c2.269-.517 4.116-.69 5.13-.748.243-.014.437-.022.578-.026.051-.001.087-.003.064-.003l.168-.001h.001l.167.001c-.022 0 .014.002.064.003.14.004.336.012.579.026 1.013.058 2.861.231 5.13.748.812.184 1.676.414 2.576.696 4.69 1.475 10.344 4.404 14.149 10.323.155.241.31.498.461.761.752 1.305 1.414 2.746 1.487 2.907.002.005.004.011.006.016.273.775.415 1.266.415 1.266.104.372-.145.726-.504.727a.6173.6173 0 01-.118-.013" fill="url(#k)" transform="matrix(1.25 0 0 -1.25 -32.6149 702.8148)"/><path d="M33.735 547.328l.001-.001c0 .001 0 .001-.001.001zm.001-.004v.003zm.082-.258c-.036.109-.05.154.049-.158.05-.157.108-.341.174-.547.004-.014.009-.03.013-.044 1.282-3.934 5.715-17.668 8.016-22.863 1.964-4.437 3.853-8.809 9.127-10.743.01-.004.02-.007.031-.011.76-.277 1.592-.504 2.504-.672 1.045-.157 2.502-.275 4.59-.277h.001v5.035l-.723-.001c-1.277.009-2.565.056-3.821.317-.901.19-1.765.531-2.54 1.012 0 0-.471.309-.691.493-.925.772-1.616 1.776-2.197 2.827-.624 1.131-1.117 2.328-1.624 3.519-.506 1.201-.992 2.407-1.476 3.62-.242.605-1.077 2.97-1.056 2.911.113-.29.22-.571.333-.861.232-.611.48-1.202.722-1.808.485-1.213.971-2.418 1.477-3.619.506-1.191.999-2.388 1.624-3.52.58-1.051 1.272-2.055 2.197-2.826.22-.184.691-.498.691-.498.775-.48 1.639-.818 2.54-1.008 1.256-.261 2.543-.308 3.821-.317l.722.001h.001v.138h-.001l-.741-.001c-1.278.009-2.565.056-3.821.317-.907.191-1.775.511-2.554.996-.235.149-.461.31-.677.49-.925.771-1.617 1.776-2.197 2.827-.625 1.131-1.118 2.328-1.624 3.52-.506 1.2-2.794 6.943-2.823 7.025l-.001.001c-.001 0-.001.001-.002.002-.13.111-.312.279-.534.496-.061.058-.12.117-.18.174-.057.054-.138.135-.226.224-.163.158-.326.316-.484.477-2.599 2.633-4.527 5.36-5.926 7.755-.33.563-.628 1.107-.901 1.628-.026.05-.054.102-.079.151-.742 1.431-1.275 2.672-1.64 3.605-.042.108-.083.213-.121.311l-.055.16c.024-.073.05-.156.082-.258" fill="url(#l)" transform="matrix(1.25 0 0 -1.25 -32.6149 702.8148)"/><path d="M82.853 547.164c-.038-.098-.078-.203-.121-.311-.364-.933-.898-2.174-1.639-3.605-.025-.049-.053-.101-.079-.151-.273-.521-.572-1.065-.901-1.628-1.4-2.395-3.327-5.122-5.927-7.755-.157-.161-.32-.319-.483-.477-.088-.089-.169-.17-.226-.224-.06-.057-.12-.116-.181-.174-.221-.217-.404-.385-.534-.496 0-.001-.001-.002-.002-.002v-.001c-.029-.082-2.318-5.825-2.824-7.025-.506-1.192-.999-2.389-1.623-3.52-.581-1.051-1.273-2.056-2.197-2.827-.216-.18-.443-.341-.678-.49-.777-.485-1.647-.805-2.553-.996-1.257-.261-2.544-.308-3.822-.317l-.74.001h-.001v-.138h.001l.722-.001c1.277.009 2.565.056 3.822.317.9.19 1.764.528 2.539 1.008 0 0 .47.314.691.498.924.771 1.616 1.775 2.197 2.826.624 1.132 1.118 2.329 1.623 3.52.507 1.201.992 2.406 1.476 3.619.243.606.492 1.197.723 1.808.114.29.221.571.333.861.022.059-.813-2.306-1.056-2.911-.484-1.213-.97-2.419-1.476-3.62-.505-1.191-.999-2.388-1.623-3.519-.582-1.051-1.273-2.055-2.197-2.827-.221-.184-.691-.493-.691-.493-.775-.481-1.639-.822-2.54-1.012-1.257-.261-2.544-.308-3.822-.317l-.722.001v-5.035h.001c2.088.002 3.545.12 4.59.277.911.168 1.743.395 2.504.672.01.004.02.007.03.011 5.274 1.934 7.163 6.306 9.128 10.743 2.3 5.195 6.734 18.929 8.015 22.863.005.014.009.03.014.044.065.206.123.39.173.547.099.312.085.267.05.158l.081.258c.001.001.001.003.001.005z" fill="url(#m)" transform="matrix(1.25 0 0 -1.25 -32.6149 702.8148)"/><path d="M72.449 531.484c-.112-.29-.219-.571-.333-.861-.231-.611-.48-1.202-.723-1.808-.484-1.213-.969-2.418-1.476-3.619-.505-1.191-.999-2.388-1.623-3.52-.581-1.051-1.273-2.055-2.197-2.826-.221-.184-.691-.498-.691-.498-.775-.48-1.639-.818-2.539-1.008-1.257-.261-2.545-.308-3.822-.317l-.722.001h-.001l-.722-.001c-1.278.009-2.565.056-3.821.317-.901.19-1.765.528-2.54 1.008 0 0-.471.314-.691.498-.925.771-1.617 1.775-2.197 2.826-.625 1.132-1.118 2.329-1.624 3.52-.506 1.201-.992 2.406-1.477 3.619-.242.606-.49 1.197-.722 1.808-.112.288-.219.568-.331.856.043-.125.822-2.325 1.054-2.906.484-1.213.97-2.419 1.476-3.62.507-1.191 1-2.388 1.624-3.519.581-1.051 1.272-2.055 2.197-2.827.22-.184.691-.493.691-.493.775-.481 1.639-.822 2.54-1.012 1.256-.261 2.544-.308 3.821-.317l.723.001.721-.001c1.278.009 2.565.056 3.822.317.901.19 1.765.531 2.54 1.012 0 0 .47.309.691.493.924.772 1.615 1.776 2.197 2.827.624 1.131 1.118 2.328 1.623 3.519.506 1.201.992 2.407 1.476 3.62.24.598 1.057 2.912 1.057 2.912l-.001-.001m-28.254 0a.0076.0076 0 00.002-.005.0322.0322 0 01-.002.006v-.001" fill="url(#n)" transform="matrix(1.25 0 0 -1.25 -32.6149 702.8148)"/><path d="M82.943 547.431v.001zm-.002-.005c-.002-.002-.003-.006-.005-.01-.073-.161-.735-1.602-1.487-2.907-.151-.263-.306-.52-.461-.761-3.805-5.919-9.459-8.848-14.149-10.323-.9-.282-1.764-.512-2.576-.696-2.269-.517-4.117-.69-5.13-.748a20.482 20.482 0 00-.579-.026c-.05-.001-.094-.003-.13-.003h.066c.873 0 1.781.007 2.714.02l1.949.013 1.205.045c1.477.036 2.957.08 4.432.139.393.015 1.103.045 1.819.076.571.025 1.144.05 1.562.068l.589.027v.001c.001 0 .001.001.002.002.13.111.313.279.534.496.061.058.121.117.181.174.077.074.15.15.226.224.162.158.326.316.483.477 2.6 2.633 4.527 5.36 5.927 7.755.329.563.628 1.107.901 1.628.026.05.054.102.079.151.741 1.431 1.275 2.672 1.639 3.605.043.108.083.213.121.311l.056.165.001.002.013.037.02.063s-.001-.001-.002-.005" fill="url(#o)" transform="matrix(1.25 0 0 -1.25 -32.6149 702.8148)"/><path d="M49.3764 21.1034v-8.8388h2.8238v8.8388z" fill="#fff"/><g clip-path="url(#p)" transform="matrix(1.25 0 0 -1.25 -32.6149 702.8148)"><path d="M60.2071 545.3686c-.256 0-1.156.034-2.007.478-1.112.579-1.675 1.589-1.675 3 0 1.487.622 2.545 1.848 3.143.918.448 1.849.454 1.888.454h4.283v-1.756h-4.009c-.064 0-1.606-.039-1.606-1.781 0-.629.2-1.108.595-1.424.331-.265.741-.359 1.014-.359h4.006v-1.754zm-17.7476 1.7554c.064.001 1.606.04 1.606 1.782 0 1.41-1.053 1.783-1.609 1.783h-2.614v-3.565zm-4.876-1.755v7.071l5.204.003c.256 0 1.156-.034 2.007-.477 1.112-.58 1.675-1.589 1.675-3.001 0-1.487-.622-2.544-1.848-3.143-.919-.448-1.849-.453-1.888-.453zm15.2247 3.0174c-.197.434-.562 1.236-.732 1.617-.083.187-.191.415-.222.459-.07.085-.148.182-.395.182-.248 0-.325-.097-.394-.181-.032-.045-.14-.273-.222-.459-.171-.382-.536-1.184-.733-1.618zm1.415-3.017l-.056.117c-.159.329-.457.958-.581 1.22h-4.254c-.124-.262-.422-.891-.581-1.22l-.056-.117h-2.495l.129.292c.553 1.248 1.12 2.448 1.552 3.355.286.601.572 1.188.886 1.828.216.411.546.95.904 1.221.365.26.873.428 1.444.48.096.009.201.013.319.013h.049c.119 0 .224-.004.32-.013.571-.052 1.079-.22 1.431-.471.371-.28.701-.819.914-1.224.317-.646.603-1.233.889-1.834.432-.907.999-2.107 1.552-3.355l.129-.292zm20.9274 3.017c-.197.434-.562 1.236-.732 1.617-.083.186-.191.415-.222.458-.07.086-.148.183-.395.183-.248 0-.325-.097-.393-.181-.033-.045-.141-.273-.223-.459-.171-.382-.536-1.184-.733-1.618zm1.415-3.017l-.056.117c-.159.329-.457.958-.581 1.22h-4.254c-.124-.262-.422-.891-.581-1.22l-.056-.117h-2.496l.13.292c.551 1.243 1.118 2.445 1.552 3.355.286.601.572 1.188.886 1.828.216.411.546.95.904 1.221.364.26.873.427 1.444.48.096.009.201.013.319.013h.049c.119 0 .224-.004.32-.013.571-.053 1.079-.22 1.431-.471.371-.28.701-.82.914-1.224.317-.646.603-1.233.889-1.834.431-.904.996-2.102 1.552-3.355l.129-.292z" fill="#fff"/></g><path d="M65.801 545.577h1.843v6.655h-1.843z" fill="url(#q)" transform="matrix(1.25 0 0 -1.25 -32.6149 702.8148)"/><path d="M60.261 552.235c-.037 0-.92-.005-1.796-.432-1.149-.561-1.732-1.556-1.732-2.956 0-1.328.526-2.275 1.564-2.816.808-.421 1.666-.455 1.91-.455l4.13.001v1.338h-3.799c-.629 0-1.817.416-1.817 1.991 0 1.968 1.796 1.99 1.814 1.99h3.802v1.339z" fill="url(#r)" transform="matrix(1.25 0 0 -1.25 -32.6149 702.8148)"/><g clip-path="url(#s)" transform="matrix(1.25 0 0 -1.25 -32.6149 702.8148)"><path d="M39.6345 546.9158h2.825c.018 0 1.814.023 1.814 1.99 0 1.575-1.189 1.991-1.817 1.991h-2.822zm-1.843-1.338v6.654l4.996.003c.244 0 1.102-.032 1.91-.454 1.038-.54 1.564-1.488 1.564-2.815 0-1.401-.582-2.396-1.732-2.957-.875-.427-1.759-.432-1.796-.432z" fill="#12406e"/></g><path d="M51.434 552.351c-.101 0-.201-.004-.3-.013-.863-.079-1.278-.398-1.337-.439-.337-.255-.659-.797-.843-1.146-.313-.64-.599-1.226-.885-1.827-.435-.912-1-2.108-1.549-3.349h2.044c.203.421.636 1.338.636 1.338h4.518s.433-.917.637-1.338h2.043c-.549 1.241-1.115 2.437-1.548 3.349-.287.601-.573 1.187-.886 1.827-.184.349-.506.891-.842 1.146-.06.041-.476.36-1.338.439-.099.009-.2.013-.3.013zm-.782-2.263s.189.428.248.502c.08.099.207.262.559.262.352 0 .479-.163.558-.262.061-.074.249-.502.249-.502.241-.536.866-1.91.866-1.91h-3.345s.625 1.374.865 1.91" fill="url(#t)" transform="matrix(1.25 0 0 -1.25 -32.6149 702.8148)"/><g clip-path="url(#u)" transform="matrix(1.25 0 0 -1.25 -32.6149 702.8148)"><path d="M72.1291 548.1782s.625 1.374.866 1.91c0 0 .189.428.248.502.08.099.207.262.558.262h.001c.351 0 .478-.163.558-.262.059-.074.248-.502.248-.502.241-.536.866-1.91.866-1.91zm5.063.748c-.286.601-.572 1.187-.886 1.827-.183.348-.505.891-.842 1.146-.059.041-.475.36-1.338.439-.099.009-.199.012-.3.012h-.049c-.101 0-.201-.003-.301-.012-.862-.079-1.278-.398-1.337-.439-.337-.255-.659-.798-.843-1.146-.313-.64-.599-1.226-.885-1.827-.434-.911-.999-2.108-1.549-3.349h2.045c.203.421.635 1.338.635 1.338h4.519s.432-.917.636-1.338h2.044c-.55 1.241-1.115 2.438-1.549 3.349" fill="#12406e"/></g><path d="M65.802 548.203v-2.626h1.842v2.668c-.593-.015-1.206-.029-1.842-.042" fill="url(#v)" transform="matrix(1.25 0 0 -1.25 -32.6149 702.8148)"/><path d="M56.788 548.143c.159-.964.665-1.672 1.509-2.112.808-.421 1.666-.455 1.91-.455l4.13.001v1.338h-3.799c-.511 0-1.393.276-1.704 1.226-.17 0-.339 0-.511.001h-.001c-.521-.001-1.032-.001-1.534.001z" fill="url(#w)" transform="matrix(1.25 0 0 -1.25 -32.6149 702.8148)"/><path d="M37.792 545.577h4.941c.038 0 .921.005 1.797.432.967.472 1.531 1.252 1.686 2.322-.696.026-1.356.054-1.985.083-.271-1.479-1.755-1.498-1.772-1.498h-2.825v1.783c-.676.055-1.289.111-1.842.167z" fill="url(#x)" transform="matrix(1.25 0 0 -1.25 -32.6149 702.8148)"/><path d="M46.52 545.577h2.044c.203.421.636 1.338.636 1.338h4.518s.433-.917.637-1.338h2.043c-.405.914-.817 1.803-1.18 2.572-.982.007-1.922.017-2.823.029h-2.608l.021.047c-.71.016-1.392.034-2.047.054-.377-.799-.813-1.736-1.241-2.702" fill="url(#y)" transform="matrix(1.25 0 0 -1.25 -32.6149 702.8148)"/><path d="M75.293 548.575c.106-.234.181-.397.181-.397h-3.345s.04.088.104.228c-.666-.031-1.369-.059-2.109-.086-.383-.808-.827-1.76-1.261-2.743h2.043c.204.421.637 1.338.637 1.338h4.518s.433-.917.636-1.338h2.044c-.51 1.151-1.032 2.262-1.453 3.146-.609-.051-1.272-.1-1.995-.148" fill="url(#z)" transform="matrix(1.25 0 0 -1.25 -32.6149 702.8148)"/></svg>